# xmcd
#
# Track frame offsets:
#	150
#	18183
#	36983
#	54945
#	71970
#	94308
#	125583
#	141613
#	161875
#	178538
#	203805
#	221515
#	239679
#	259305
#
# Disc length: 3676 seconds
#
# Revision: 0
# Processed by: cddbd v1.5.2PL0 Copyright (c) Steve Scherf et al.
# Submitted via: EasyCDDAExtractor 10.2.0.1
#
DISCID=dd0e5a0e
DTITLE=FREDL FESL - Fußball-Lied und andere Erfolge CD 2
DYEAR=2005
DGENRE=Comedy
TTITLE0=Anlass-Jodler
TTITLE1=Der Bi-Ba-Butzemann
TTITLE2=3 Musketiere
TTITLE3=Der edle Rittersepp
TTITLE4=Das Stachelschwein
TTITLE5=Mückriges Lied
TTITLE6=Gräfin und Ritter
TTITLE7=Schwedenlied
TTITLE8=Ein Pferd hat vier Beiner
TTITLE9=Ihr allererstes Kind
TTITLE10=Der Schimmelwirt
TTITLE11=Knödelsong
TTITLE12=Winterwald
TTITLE13=Der Bayerische Stier
EXTD=
EXTT0=
EXTT1=
EXTT2=
EXTT3=
EXTT4=
EXTT5=
EXTT6=
EXTT7=
EXTT8=
EXTT9=
EXTT10=
EXTT11=
EXTT12=
EXTT13=
PLAYORDER=
